<svg xmlns="http://www.w3.org/2000/svg" width="376" height="148" viewBox="0 0 376 148" version="1.1"><title>Opera-logo-CMYK</title><desc>Created with Sketch.</desc><defs><path d="M0.1-0.2L375-0.2 375 147 0.1 147 0.1-0.2Z"/></defs><g stroke="none" stroke-width="1" fill="none" fill-rule="evenodd"><g transform="translate(0.000000, 1.000000)"><path d="M177.9 43.5C169 43.5 166.5 49.1 166.5 60.5 166.5 73.3 169.1 78.7 177.9 78.7 186.8 78.7 189.5 73.2 189.5 60.5 189.5 49.1 186.8 43.5 177.9 43.5L177.9 43.5ZM177.9 86.3C161.1 86.3 157.3 74.9 157.3 60.5 157.3 47.6 161.1 35.8 177.9 35.8 194.6 35.8 198.6 47.6 198.6 60.5 198.6 74.9 194.6 86.3 177.9 86.3L177.9 86.3Z" fill="#D62F33"/><path d="M219.7 44.5L212.3 44.5 212.3 60.8 219.7 60.8C225.8 60.8 228.6 57.8 228.6 52.3 228.6 47.1 225.6 44.5 219.7 44.5L219.7 44.5ZM219.7 68.5L211.8 68.5C212 68.9 212.3 69.7 212.3 70.2L212.3 85.3 203.3 85.3 203.3 36.9 219.7 36.9C232.1 36.9 237.7 43.5 237.7 52.3 237.7 61 232.2 68.5 219.7 68.5L219.7 68.5Z" fill="#D62F33"/><path d="M241.5 85.3L241.5 36.9 273.8 36.9 273.8 44.4 250.5 44.4 250.5 56 271.8 56 269.6 63.6 250.3 63.6C250.5 64 250.5 64.6 250.5 64.8L250.5 77.8 273.9 77.8 273.9 85.3 241.5 85.3" fill="#D62F33"/><path d="M295.3 44.5L287.9 44.5 287.9 59.2 295.3 59.2C301.6 59.2 304.1 56.3 304.1 51.9 304.1 47.1 301.4 44.5 295.3 44.5L295.3 44.5ZM305.3 85.4L294.1 68.3C293.8 67.8 293.6 67.2 293.5 66.7L287.9 66.7 287.9 85.4 278.9 85.4 278.9 36.9 295.3 36.9C307.6 36.9 313.3 43 313.3 51.9 313.3 58.5 310 63.3 303.2 65.5L316.1 85.4 305.3 85.4 305.3 85.4Z" fill="#D62F33"/><path d="M340.4 51.1C339.9 49.8 339.5 48.2 339.4 47.3 339.3 48.2 338.9 49.9 338.5 51.1L333.5 65.6 345.3 65.6 340.4 51.1 340.4 51.1ZM352.1 85.4L347.9 73.1 330.9 73.1 326.7 85.4 317.4 85.4 334.9 36.9 344.1 36.9 361.6 85.4 352.1 85.4 352.1 85.4Z" fill="#D62F33"/><path d="M170.5 133.6C165.6 133.6 161.2 131.8 159.2 127.4L163.9 125.7C165.2 128.1 167.4 129.2 170.5 129.2 174.3 129.2 176.9 127.8 176.9 124.7 176.9 122.7 175.8 121.5 173.7 121.1L166.7 119.9C162.4 119.1 159.8 116.5 159.8 111.8 159.8 106.6 163.9 103.4 170.9 103.4 176.1 103.4 179.8 105.3 181.7 108.7L177.4 110.9C176.2 109.1 174.3 108 171 108 167.4 108 165.2 109.1 165.2 111.8 165.2 113.4 165.8 114.6 168.1 114.9L174.8 116.1C179 116.8 182.5 119.1 182.5 124.2 182.5 131.1 176.8 133.6 170.5 133.6" fill="#8A8B8A"/><path d="M197.5 108C192.1 108 190 110.6 190 118.5 190 126.4 192.1 129.1 197.5 129.1 202.8 129.1 204.9 126.4 204.9 118.5 204.9 110.6 202.8 108 197.5 108L197.5 108ZM197.5 133.6C187.8 133.6 184.4 127.9 184.4 118.5 184.4 109.1 187.8 103.4 197.5 103.4 207.1 103.4 210.6 109.1 210.6 118.5 210.6 127.9 207.1 133.6 197.5 133.6L197.5 133.6Z" fill="#8A8B8A"/><path d="M228.7 96.1C227.8 95.9 227 95.9 226.1 95.9 223.1 95.9 221.1 97.2 221.1 101.5L221.1 104.2 228.4 104.2 227.3 108.9 221.1 108.9 221.1 132.8 215.5 132.8 215.5 110.8C215.5 110.3 215.8 109.6 216.1 108.9L211.1 108.9 211.1 104.2 215.5 104.2 215.5 101.5C215.5 93.4 220.5 91.4 226.1 91.4 227.4 91.4 228.6 91.5 229.8 91.8L228.7 96.1" fill="#8A8B8A"/><path d="M243.5 133.6C238.9 133.6 234.6 131.8 234.6 125.5L234.6 110.7C234.6 110.2 234.7 109.6 235.1 108.9L229.9 108.9 229.9 104.2 234.6 104.2 234.6 94.6 240.2 92.9 240.2 104.2 249.9 104.2 248.4 108.9 240.2 108.9 240.2 125.5C240.2 128 241.9 129 243.9 129 245.5 129 246.9 128.4 248.6 127.3L251.8 130.5C249.6 132.6 246.5 133.6 243.5 133.6" fill="#8A8B8A"/><path d="M282.6 132.8L277.5 132.8 272.1 116.3C271.7 115.3 271.4 114.4 271.3 112.8 271.2 114.4 270.8 115.3 270.5 116.3L265 132.8 260 132.8 250.8 104.2 256.3 104.2 261.7 121.1C261.9 121.7 262.2 123.3 262.5 126.2 262.9 123.3 263.1 122.3 263.4 121.2L268.9 104.2 273.7 104.2 279.1 121.2C279.5 122.3 279.7 123.3 280.1 126.2 280.4 123.3 280.7 121.7 280.9 121.1L286.3 104.2 291.8 104.2 282.6 132.8" fill="#8A8B8A"/><path d="M310.6 119.9C308.5 119.6 306.2 119.2 304 119.2 300.3 119.2 297.6 120.4 297.6 124 297.6 127.9 299.6 129 302 129 305.5 129 307.7 128.1 310.6 126.3L310.6 119.9 310.6 119.9ZM311.6 132.8L311 130.8C308.2 132.7 305.4 133.6 302 133.6 295 133.6 291.9 129.6 291.9 124 291.9 116.6 297.4 114.8 302.8 114.8 305.4 114.8 308.3 115.2 310.6 115.7L310.6 112.1C310.6 109.4 309.2 108 305.3 108 302.1 108 299.5 108.7 297.6 111.4L293.4 109C295.9 104.8 300.5 103.4 305.4 103.4 314.6 103.4 316.2 108 316.2 112.1L316.2 132.8 311.6 132.8 311.6 132.8Z" fill="#8A8B8A"/><path d="M331.9 108.2C330.3 108.2 328.6 108.6 327.4 109.6L325.6 111.1 325.6 132.8 320 132.8 320 104.2 324.5 104.2 325.2 107 327.2 105.3C328.9 103.9 330.8 103.4 332.8 103.4 333.7 103.4 334.6 103.6 335.5 103.7L335.5 108.6C334.4 108.4 333.2 108.2 331.9 108.2" fill="#8A8B8A"/><mask fill="white"/><path d="M349.4 108.1C344.3 108.1 341.9 109.9 341.5 115.7L356.2 115.7C356.1 111.3 354.2 108.1 349.4 108.1L349.4 108.1ZM341.5 120.3C341.6 126.3 343.6 129 349.4 129 353.1 129 355.5 127.8 357 124.8L361.8 126.7C359.4 131.4 355.8 133.6 349.4 133.6 340.1 133.6 335.9 128.9 335.9 118.5 335.9 109.1 339.1 103.4 349.4 103.4 360.4 103.4 362.1 112.2 362.1 118.5L362.1 120.3 341.5 120.3 341.5 120.3Z" fill="#8A8B8A" mask="url(#mask-2)"/><path d="M68.3 12.8C90.2 12.8 94.7 43.5 94.7 71.3 94.7 97.1 92.2 131.6 68.5 131.6 44.9 131.6 41.8 96.8 41.8 71 41.8 43.1 46.3 12.8 68.3 12.8L68.3 12.8ZM107.5 11.4C96.7 3.9 83.3-0.2 68.3-0.2 54.5-0.2 42.2 3.3 31.9 9.5 12.2 21.5 0 44 0 72.7 0 111.6 27.3 147 68.3 147 109.2 147 136.5 111.6 136.5 72.7 136.5 45.4 125.5 23.7 107.5 11.4L107.5 11.4Z" fill="#D62F33" mask="url(#mask-2)"/><path d="M365.4 38L365.4 44 364.1 44 364.1 38 362.1 38 362.1 36.9 367.4 36.9 367.4 38 365.4 38" fill="#D62F33"/><path d="M373.7 44L373.4 39.8C373.4 39.6 373.4 39.5 373.5 39.3L372.1 42.4 371 42.4 369.6 39.3C369.6 39.5 369.6 39.7 369.6 39.8L369.3 44 368 44 368.6 36.9 369.7 36.9 371.4 40.7C371.5 40.8 371.5 40.9 371.5 41 371.6 40.9 371.6 40.7 371.6 40.6L373.4 36.9 374.5 36.9 375 44 373.7 44" fill="#D62F33"/></g></g></svg>